<mxfile host="Electron" modified="2023-07-08T20:22:27.649Z" agent="Mozilla/5.0 (X11; Linux x86_64) AppleWebKit/537.36 (KHTML, like Gecko) draw.io/21.4.0 Chrome/106.0.5249.199 Electron/21.4.4 Safari/537.36" etag="rDr7TqGf8JuSAb7ZhdK9" version="21.4.0" type="device">
  <diagram name="Page-1" id="iWr9hykJeuwdN2mu0BvK">
    <mxGraphModel dx="3457" dy="1575" grid="1" gridSize="10" guides="1" tooltips="1" connect="1" arrows="1" fold="1" page="1" pageScale="1" pageWidth="850" pageHeight="1100" math="0" shadow="0">
      <root>
        <mxCell id="0" />
        <mxCell id="1" parent="0" />
        <mxCell id="H299zmJcXH5xkdI9TSjz-1" value="" style="group" vertex="1" connectable="0" parent="1">
          <mxGeometry x="-819" y="180" width="788.01" height="110" as="geometry" />
        </mxCell>
        <mxCell id="H299zmJcXH5xkdI9TSjz-2" value="" style="group" vertex="1" connectable="0" parent="H299zmJcXH5xkdI9TSjz-1">
          <mxGeometry x="174" y="70" width="440" height="40" as="geometry" />
        </mxCell>
        <mxCell id="H299zmJcXH5xkdI9TSjz-3" value="&lt;b&gt;&amp;nbsp; Legend&lt;/b&gt;" style="text;html=1;align=left;verticalAlign=middle;whiteSpace=wrap;rounded=1;fontFamily=Courier New;perimeterSpacing=6;shadow=0;fillColor=#f5f5f5;fontColor=#333333;strokeColor=#666666;" vertex="1" parent="H299zmJcXH5xkdI9TSjz-2">
          <mxGeometry width="440" height="40" as="geometry" />
        </mxCell>
        <mxCell id="H299zmJcXH5xkdI9TSjz-4" value="Keyword" style="rounded=1;whiteSpace=wrap;html=1;fillColor=#fad7ac;strokeColor=#b46504;arcSize=50;fontStyle=1;fontFamily=Courier New;perimeterSpacing=6;shadow=0;" vertex="1" parent="H299zmJcXH5xkdI9TSjz-2">
          <mxGeometry x="90" y="5" width="70" height="30" as="geometry" />
        </mxCell>
        <mxCell id="H299zmJcXH5xkdI9TSjz-5" value="&lt;span style=&quot;font-weight: 400;&quot;&gt;Class Identifier&lt;/span&gt;" style="rounded=1;whiteSpace=wrap;html=1;fillColor=#fad9d5;strokeColor=#ae4132;arcSize=50;fontStyle=1;fontFamily=Courier New;perimeterSpacing=6;shadow=0;" vertex="1" parent="H299zmJcXH5xkdI9TSjz-2">
          <mxGeometry x="183.44" y="5" width="133.12" height="30" as="geometry" />
        </mxCell>
        <mxCell id="H299zmJcXH5xkdI9TSjz-6" value="&lt;span style=&quot;font-weight: normal;&quot;&gt;Variable&lt;/span&gt;" style="rounded=1;whiteSpace=wrap;html=1;fillColor=#e1d5e7;strokeColor=#9673a6;arcSize=50;fontStyle=1;fontFamily=Courier New;perimeterSpacing=6;shadow=0;" vertex="1" parent="H299zmJcXH5xkdI9TSjz-2">
          <mxGeometry x="341.88" y="5" width="80" height="30" as="geometry" />
        </mxCell>
        <mxCell id="H299zmJcXH5xkdI9TSjz-7" value="" style="group" vertex="1" connectable="0" parent="H299zmJcXH5xkdI9TSjz-1">
          <mxGeometry width="788.01" height="47.5" as="geometry" />
        </mxCell>
        <mxCell id="H299zmJcXH5xkdI9TSjz-8" value="" style="endArrow=doubleBlock;html=1;rounded=1;labelBackgroundColor=default;strokeColor=#4F4F4F;strokeWidth=2;fontFamily=Helvetica;fontSize=12;fontColor=default;shape=connector;entryX=0;entryY=0.5;entryDx=0;entryDy=0;endFill=1;" edge="1" parent="H299zmJcXH5xkdI9TSjz-7">
          <mxGeometry width="50" height="50" relative="1" as="geometry">
            <mxPoint y="34" as="sourcePoint" />
            <mxPoint x="68.13" y="33.91999999999996" as="targetPoint" />
          </mxGeometry>
        </mxCell>
        <mxCell id="H299zmJcXH5xkdI9TSjz-9" value="&lt;p&gt;&lt;font face=&quot;Courier New&quot;&gt;&lt;span style=&quot;font-weight: normal;&quot;&gt;gateway-identifier:&lt;/span&gt;&lt;/font&gt;&lt;/p&gt;" style="rounded=1;whiteSpace=wrap;html=1;arcSize=50;fillColor=#fad9d5;strokeColor=#ae4132;fontStyle=1" vertex="1" parent="H299zmJcXH5xkdI9TSjz-7">
          <mxGeometry x="151.88" y="20" width="150" height="27.5" as="geometry" />
        </mxCell>
        <mxCell id="H299zmJcXH5xkdI9TSjz-10" style="edgeStyle=orthogonalEdgeStyle;shape=connector;rounded=1;orthogonalLoop=1;jettySize=auto;html=1;exitX=1;exitY=0.5;exitDx=0;exitDy=0;entryX=0;entryY=0.5;entryDx=0;entryDy=0;labelBackgroundColor=default;strokeColor=#4F4F4F;strokeWidth=2;fontFamily=Helvetica;fontSize=12;fontColor=default;endArrow=none;endFill=0;" edge="1" parent="H299zmJcXH5xkdI9TSjz-7" target="H299zmJcXH5xkdI9TSjz-9">
          <mxGeometry relative="1" as="geometry">
            <mxPoint x="120.63" y="33.75" as="sourcePoint" />
          </mxGeometry>
        </mxCell>
        <mxCell id="H299zmJcXH5xkdI9TSjz-11" value="&lt;p&gt;&lt;font face=&quot;Courier New&quot;&gt;ip:&lt;/font&gt;&lt;/p&gt;" style="rounded=1;whiteSpace=wrap;html=1;arcSize=50;fillColor=#fad7ac;strokeColor=#b46504;fontStyle=1" vertex="1" parent="H299zmJcXH5xkdI9TSjz-7">
          <mxGeometry x="314.88" y="20" width="60" height="27.5" as="geometry" />
        </mxCell>
        <mxCell id="H299zmJcXH5xkdI9TSjz-12" style="edgeStyle=orthogonalEdgeStyle;rounded=1;orthogonalLoop=1;jettySize=auto;html=1;exitX=1;exitY=0.5;exitDx=0;exitDy=0;entryX=0;entryY=0.5;entryDx=0;entryDy=0;strokeColor=#4F4F4F;endArrow=none;endFill=0;fontSize=12;strokeWidth=2;" edge="1" parent="H299zmJcXH5xkdI9TSjz-7" source="H299zmJcXH5xkdI9TSjz-9" target="H299zmJcXH5xkdI9TSjz-11">
          <mxGeometry relative="1" as="geometry" />
        </mxCell>
        <mxCell id="H299zmJcXH5xkdI9TSjz-13" value="&lt;p&gt;&lt;font face=&quot;Courier New&quot;&gt;&lt;span style=&quot;font-weight: normal;&quot;&gt;ip-address&lt;/span&gt;&lt;/font&gt;&lt;/p&gt;" style="rounded=1;whiteSpace=wrap;html=1;arcSize=50;fillColor=#e1d5e7;strokeColor=#9673a6;fontStyle=1" vertex="1" parent="H299zmJcXH5xkdI9TSjz-7">
          <mxGeometry x="389.88" y="20" width="100" height="27.5" as="geometry" />
        </mxCell>
        <mxCell id="H299zmJcXH5xkdI9TSjz-14" style="edgeStyle=orthogonalEdgeStyle;shape=connector;rounded=1;orthogonalLoop=1;jettySize=auto;html=1;exitX=1;exitY=0.5;exitDx=0;exitDy=0;entryX=0;entryY=0.5;entryDx=0;entryDy=0;labelBackgroundColor=default;strokeColor=#4F4F4F;strokeWidth=2;fontFamily=Helvetica;fontSize=12;fontColor=default;endArrow=none;endFill=0;" edge="1" parent="H299zmJcXH5xkdI9TSjz-7" source="H299zmJcXH5xkdI9TSjz-11" target="H299zmJcXH5xkdI9TSjz-13">
          <mxGeometry relative="1" as="geometry" />
        </mxCell>
        <mxCell id="H299zmJcXH5xkdI9TSjz-15" value="&lt;p&gt;&lt;font face=&quot;Courier New&quot;&gt;location:&lt;/font&gt;&lt;/p&gt;" style="rounded=1;whiteSpace=wrap;html=1;arcSize=50;fillColor=#fad7ac;strokeColor=#b46504;fontStyle=1" vertex="1" parent="H299zmJcXH5xkdI9TSjz-7">
          <mxGeometry x="499.88" y="20" width="80" height="27.5" as="geometry" />
        </mxCell>
        <mxCell id="H299zmJcXH5xkdI9TSjz-16" style="edgeStyle=orthogonalEdgeStyle;shape=connector;rounded=1;orthogonalLoop=1;jettySize=auto;html=1;exitX=1;exitY=0.5;exitDx=0;exitDy=0;entryX=0;entryY=0.5;entryDx=0;entryDy=0;labelBackgroundColor=default;strokeColor=#4F4F4F;strokeWidth=2;fontFamily=Helvetica;fontSize=12;fontColor=default;endArrow=none;endFill=0;" edge="1" parent="H299zmJcXH5xkdI9TSjz-7" source="H299zmJcXH5xkdI9TSjz-13" target="H299zmJcXH5xkdI9TSjz-15">
          <mxGeometry relative="1" as="geometry" />
        </mxCell>
        <mxCell id="H299zmJcXH5xkdI9TSjz-17" style="edgeStyle=orthogonalEdgeStyle;shape=connector;rounded=1;orthogonalLoop=1;jettySize=auto;html=1;exitX=1;exitY=0.5;exitDx=0;exitDy=0;entryX=0;entryY=0.5;entryDx=0;entryDy=0;labelBackgroundColor=default;strokeColor=#4F4F4F;strokeWidth=2;fontFamily=Helvetica;fontSize=12;fontColor=default;endArrow=none;endFill=0;" edge="1" parent="H299zmJcXH5xkdI9TSjz-7" source="H299zmJcXH5xkdI9TSjz-18" target="H299zmJcXH5xkdI9TSjz-9">
          <mxGeometry relative="1" as="geometry">
            <Array as="points">
              <mxPoint x="758.13" y="34" />
              <mxPoint x="758.13" />
              <mxPoint x="132.13" />
              <mxPoint x="132.13" y="34" />
            </Array>
          </mxGeometry>
        </mxCell>
        <mxCell id="H299zmJcXH5xkdI9TSjz-18" value="&lt;p&gt;&lt;font face=&quot;Courier New&quot;&gt;&lt;span style=&quot;font-weight: normal;&quot;&gt;location-identifier&lt;/span&gt;&lt;/font&gt;&lt;/p&gt;" style="rounded=1;whiteSpace=wrap;html=1;arcSize=50;fillColor=#e1d5e7;strokeColor=#9673a6;fontStyle=1" vertex="1" parent="H299zmJcXH5xkdI9TSjz-7">
          <mxGeometry x="589.88" y="20" width="160" height="27.5" as="geometry" />
        </mxCell>
        <mxCell id="H299zmJcXH5xkdI9TSjz-19" style="edgeStyle=orthogonalEdgeStyle;shape=connector;rounded=1;orthogonalLoop=1;jettySize=auto;html=1;exitX=1;exitY=0.5;exitDx=0;exitDy=0;entryX=0;entryY=0.5;entryDx=0;entryDy=0;labelBackgroundColor=default;strokeColor=#4F4F4F;strokeWidth=2;fontFamily=Helvetica;fontSize=12;fontColor=default;endArrow=none;endFill=0;" edge="1" parent="H299zmJcXH5xkdI9TSjz-7" source="H299zmJcXH5xkdI9TSjz-15" target="H299zmJcXH5xkdI9TSjz-18">
          <mxGeometry relative="1" as="geometry" />
        </mxCell>
        <mxCell id="H299zmJcXH5xkdI9TSjz-20" value="" style="endArrow=none;html=1;rounded=1;labelBackgroundColor=default;strokeColor=#4F4F4F;strokeWidth=2;fontFamily=Helvetica;fontSize=12;fontColor=default;shape=connector;startArrow=classicThin;startFill=1;" edge="1" parent="H299zmJcXH5xkdI9TSjz-7">
          <mxGeometry width="50" height="50" relative="1" as="geometry">
            <mxPoint x="408.13" as="sourcePoint" />
            <mxPoint x="435.13" as="targetPoint" />
            <Array as="points">
              <mxPoint x="438.13" />
            </Array>
          </mxGeometry>
        </mxCell>
        <mxCell id="H299zmJcXH5xkdI9TSjz-21" value="&lt;p&gt;&lt;font face=&quot;Courier New&quot;&gt;gateways:&lt;/font&gt;&lt;/p&gt;" style="rounded=1;whiteSpace=wrap;html=1;arcSize=50;fontStyle=1;fillColor=#fad7ac;strokeColor=#b46504;" vertex="1" parent="H299zmJcXH5xkdI9TSjz-7">
          <mxGeometry x="43.75999999999999" y="20" width="82.5" height="27.5" as="geometry" />
        </mxCell>
        <mxCell id="H299zmJcXH5xkdI9TSjz-22" value="" style="endArrow=doubleBlock;html=1;rounded=1;labelBackgroundColor=default;strokeColor=#4F4F4F;strokeWidth=2;fontFamily=Helvetica;fontSize=12;fontColor=default;shape=connector;endFill=1;" edge="1" parent="H299zmJcXH5xkdI9TSjz-7">
          <mxGeometry width="50" height="50" relative="1" as="geometry">
            <mxPoint y="34" as="sourcePoint" />
            <mxPoint x="40" y="34" as="targetPoint" />
          </mxGeometry>
        </mxCell>
        <mxCell id="H299zmJcXH5xkdI9TSjz-23" value="" style="endArrow=doubleBlock;html=1;rounded=1;labelBackgroundColor=default;strokeColor=#4F4F4F;strokeWidth=2;fontFamily=Helvetica;fontSize=12;fontColor=default;shape=connector;entryX=0;entryY=0.5;entryDx=0;entryDy=0;endFill=1;" edge="1" parent="H299zmJcXH5xkdI9TSjz-7">
          <mxGeometry width="50" height="50" relative="1" as="geometry">
            <mxPoint x="749.88" y="33.460000000000036" as="sourcePoint" />
            <mxPoint x="788.01" y="33.789999999999964" as="targetPoint" />
          </mxGeometry>
        </mxCell>
      </root>
    </mxGraphModel>
  </diagram>
</mxfile>
